<svg xmlns="http://www.w3.org/2000/svg" width="512" height="512" viewBox="0 0 512 512" version="1.1">
	<path d="M 340.123 15.021 C 337.305 18.883, 335 22.467, 335 22.986 C 335 23.505, 334.007 24.461, 332.793 25.111 C 330.951 26.097, 330.414 26, 329.543 24.526 C 327.106 20.400, 321.321 14.989, 319.097 14.754 C 317.090 14.542, 316.240 15.407, 313.943 20 C 312.429 23.025, 311.412 25.857, 311.682 26.294 C 311.951 26.730, 311.764 27.630, 311.266 28.294 C 310.768 28.957, 309.757 31.413, 309.020 33.750 C 308.283 36.088, 307.288 38, 306.809 38 C 306.330 38, 302.915 36.311, 299.219 34.246 C 295.524 32.182, 290.025 29.751, 287 28.845 C 277.752 26.073, 263.695 22.688, 260 22.342 C 258.075 22.162, 253.867 21.785, 250.649 21.504 C 247.431 21.223, 244.373 20.731, 243.855 20.410 C 243.336 20.090, 241.824 20.540, 240.494 21.412 C 239.165 22.283, 235.247 23.262, 231.788 23.587 C 223.138 24.400, 211.582 28.367, 205 32.782 C 201.975 34.812, 199.189 36.928, 198.809 37.486 C 198.429 38.044, 195.809 40.975, 192.988 44 C 190.166 47.025, 186.813 51.525, 185.537 54 C 184.260 56.475, 182.268 59.357, 181.108 60.405 C 179.949 61.453, 179 62.624, 179 63.007 C 179 63.390, 176.814 67.033, 174.143 71.102 C 169.559 78.084, 166.285 85.996, 165.539 91.895 C 165.356 93.339, 164.746 96.315, 164.184 98.510 C 163.253 102.146, 162.624 111.164, 161.328 139.500 C 161.076 145, 160.787 150.448, 160.685 151.606 C 160.510 153.600, 159.912 153.720, 149.492 153.850 L 138.483 153.988 137.242 150.010 C 136.559 147.822, 136 145.555, 136 144.974 C 136 143.771, 134.788 142.212, 130.500 137.898 C 127.688 135.069, 127.126 134.909, 121.533 135.344 C 116.607 135.726, 115.202 136.262, 113.487 138.414 L 111.409 141.020 110.188 137.760 C 108.979 134.530, 105.163 130.994, 102.460 130.597 C 101.689 130.484, 100.745 130.078, 100.362 129.696 C 99.068 128.401, 93.153 128.990, 91.571 130.571 C 90.707 131.436, 89.985 131.773, 89.967 131.321 C 89.948 130.870, 89.030 131.585, 87.927 132.910 C 85.818 135.443, 84.456 134.973, 83.839 131.500 C 83.603 130.177, 82.554 129.393, 80.741 129.184 C 79.234 129.010, 78 128.498, 78 128.047 C 78 126.860, 71.857 126.123, 69.461 127.024 C 66.535 128.123, 63.439 135.154, 61.424 145.273 L 59.678 154.046 49.589 153.904 C 36.861 153.726, 18.884 155.004, 19.526 156.042 C 19.794 156.475, 19.447 157.031, 18.756 157.278 C 15.044 158.603, 20.995 159.342, 38.730 159.757 C 49.604 160.011, 58.640 160.347, 58.810 160.503 C 58.981 160.659, 59.333 168.372, 59.592 177.643 C 60.094 195.546, 61.659 202.536, 66.332 207.750 C 69.564 211.356, 77.144 210.169, 78.984 205.768 C 79.505 204.521, 80.640 202.602, 81.505 201.505 C 82.856 199.792, 83.213 199.721, 84.024 201.005 C 84.544 201.827, 84.976 203.106, 84.985 203.846 C 84.993 204.586, 85.961 206.540, 87.135 208.189 C 89.116 210.972, 89.585 211.139, 93.673 210.526 C 101.171 209.402, 104.910 207.277, 107.813 202.492 C 109.291 200.056, 110.725 198.052, 111 198.038 C 111.275 198.024, 112.248 199.328, 113.163 200.936 C 116.255 206.370, 124.964 208.963, 130.383 206.063 C 135.671 203.233, 140.174 186.963, 140.160 170.740 L 140.150 159.980 184.825 160.240 L 229.500 160.500 229.482 166.500 C 229.472 169.800, 229.076 176.550, 228.601 181.500 C 228.126 186.450, 227.616 192.232, 227.467 194.349 C 227.319 196.466, 226.855 200.291, 226.437 202.849 C 225.162 210.652, 225.264 232.029, 226.602 237.450 C 230.661 253.899, 235.617 261.151, 246.015 265.858 C 251.299 268.250, 253.473 268.716, 257.515 268.327 C 262.270 267.869, 267.930 266.254, 269 265.051 C 269.275 264.742, 271.181 263.235, 273.236 261.704 C 275.292 260.172, 276.883 258.600, 276.774 258.209 C 276.664 257.819, 278.197 253.225, 280.180 248 C 282.546 241.768, 283.879 236.436, 284.056 232.500 C 284.656 219.167, 284.452 181.242, 283.760 177.500 C 283.354 175.300, 282.739 170.458, 282.395 166.739 L 281.770 159.978 321.401 160.036 L 361.033 160.093 360.711 175.796 C 360.261 197.786, 361.816 211.877, 365.517 219.340 C 369.032 226.429, 372.210 229.207, 375.871 228.392 C 378.765 227.748, 384.540 221.906, 386.115 218.029 L 387.118 215.559 389.106 218.698 C 391.600 222.637, 396.945 224.795, 398.600 222.532 C 399.216 221.689, 400.146 221, 400.665 221 C 401.185 221, 402.710 217.626, 404.055 213.503 C 405.400 209.380, 406.725 206.009, 407 206.013 C 407.275 206.017, 408.235 207.771, 409.133 209.911 C 412.680 218.359, 420.420 219.127, 427.268 211.710 C 429.355 209.449, 431.290 206.452, 431.567 205.050 C 431.845 203.647, 432.790 200.025, 433.668 197 C 436.478 187.319, 435.577 170.086, 431.877 162.764 C 431.395 161.809, 431 160.804, 431 160.531 C 431 160.258, 439.212 159.991, 449.250 159.938 C 470.945 159.823, 481.941 159.393, 482.705 158.629 C 483.012 158.322, 484.104 158.520, 485.131 159.070 C 487.266 160.213, 487.600 159.083, 485.750 156.977 C 484.980 156.100, 485.268 156.165, 486.500 157.147 C 488.699 158.899, 497.616 159.430, 498.583 157.866 C 498.907 157.341, 498.640 156.271, 497.990 155.488 C 497.091 154.404, 494.261 154.091, 486.154 154.178 C 451.420 154.552, 429 153.967, 429 152.687 C 429 150.590, 423.908 146.288, 418.700 143.985 L 413.899 141.862 410.248 144.016 C 406.733 146.090, 406.551 146.102, 405.345 144.335 C 403.255 141.274, 400.647 138.895, 397.690 137.352 C 395.152 136.029, 394.570 136.067, 391.693 137.747 C 389.941 138.771, 387.502 141.099, 386.274 142.922 L 384.040 146.236 383.020 143.553 C 382.459 142.077, 382 140.512, 382 140.074 C 382 139.316, 374.038 138.027, 369.240 138.009 C 365.913 137.996, 363.632 141.285, 362.475 147.761 L 361.450 153.500 355.125 153.800 C 350.278 154.030, 348.903 153.797, 349.242 152.800 C 349.485 152.085, 349.324 150.150, 348.883 148.500 C 348.443 146.850, 347.594 140.550, 346.997 134.500 C 346.400 128.450, 345.452 121.770, 344.891 119.656 C 344.331 117.541, 343.848 114.047, 343.818 111.892 C 343.788 109.736, 343.382 107.736, 342.915 107.447 C 342.448 107.159, 342.309 105.702, 342.606 104.211 C 342.932 102.576, 342.302 99.530, 341.018 96.537 C 339.847 93.808, 338.725 89.983, 338.524 88.037 C 337.905 82.036, 331.974 68.752, 326.533 61.178 C 324.590 58.474, 323 55.915, 323 55.491 C 323 55.068, 320.526 51.903, 317.501 48.459 L 312.003 42.196 315.135 33.598 C 316.858 28.869, 318.641 25, 319.098 25 C 319.556 25, 320.418 25.913, 321.015 27.028 C 321.612 28.143, 322.532 28.789, 323.060 28.463 C 323.588 28.137, 325.201 28.799, 326.645 29.935 C 328.088 31.071, 330.262 32, 331.474 32 C 334.021 32, 340.910 27.100, 340.964 25.250 C 340.984 24.563, 341.337 23.997, 341.750 23.994 C 342.163 23.990, 343.345 22.528, 344.377 20.744 C 350.093 10.868, 350.107 10.834, 348.917 9.400 C 346.849 6.909, 345.337 7.876, 340.123 15.021 M 240 28.086 C 238.075 28.503, 234.475 29.100, 232 29.414 C 221.547 30.739, 219.213 31.501, 211.313 36.167 C 205.145 39.811, 201.918 42.525, 198.756 46.730 C 196.415 49.842, 193.317 53.692, 191.870 55.286 C 190.424 56.879, 188.632 59.379, 187.888 60.841 C 187.144 62.304, 185.065 65.477, 183.268 67.894 C 181.471 70.310, 180 72.750, 180 73.315 C 180 73.880, 179.361 75.053, 178.579 75.921 C 176.033 78.750, 172.221 87.358, 170.572 94 C 169.661 97.670, 168.779 106.378, 168.547 114 C 168.320 121.425, 167.848 133.463, 167.498 140.750 L 166.862 154 171.431 154 L 176 154 176.128 148.250 C 176.198 145.088, 176.369 141.600, 176.509 140.500 C 176.648 139.400, 177.064 135.575, 177.433 132 C 178.136 125.198, 179.894 119, 181.121 119 C 181.517 119, 182.120 117.731, 182.461 116.179 C 183.342 112.167, 188.271 106.570, 194.869 102.089 C 205.704 94.731, 215.167 93.443, 223.873 98.140 C 227.800 100.260, 231.005 104.874, 233.498 112 C 233.594 112.275, 233.952 113.175, 234.294 114 C 235.969 118.044, 236.718 127.452, 236.351 139.830 C 235.769 159.467, 235.215 171.564, 234.555 179 C 234.238 182.575, 233.780 188.835, 233.538 192.911 C 233.296 196.987, 232.716 200.587, 232.249 200.911 C 231.357 201.530, 230.626 212.013, 230.709 223 C 230.776 231.902, 233.740 245.623, 236.696 250.708 C 239.550 255.619, 245.034 260.698, 249.497 262.563 C 252.536 263.833, 253.823 263.872, 257 262.792 C 257.825 262.512, 260.300 261.721, 262.500 261.035 C 267.993 259.322, 272.985 255.856, 272.993 253.750 C 272.997 252.787, 273.450 252, 274 252 C 274.550 252, 275 250.705, 275 249.122 C 275 247.540, 275.645 245.710, 276.433 245.056 C 277.221 244.402, 277.878 243.109, 277.893 242.183 C 277.908 241.257, 278.275 238.250, 278.710 235.500 C 279.548 230.199, 279.406 182.240, 278.540 178 C 278.259 176.625, 277.321 170.325, 276.455 164 C 275.589 157.675, 274.418 151.010, 273.853 149.189 C 272.441 144.636, 271.944 120.829, 273.228 119.250 C 273.787 118.562, 273.983 118, 273.664 118 C 272.643 118, 278.026 108.075, 280.487 105.420 C 285.681 99.815, 300.531 97.244, 308.522 100.565 C 314.601 103.091, 323.806 113.717, 327.171 122.095 C 328.713 125.930, 330.058 130.516, 330.161 132.284 C 330.264 134.053, 330.604 135.950, 330.916 136.500 C 331.228 137.050, 331.545 140.650, 331.621 144.500 C 331.696 148.350, 331.813 151.983, 331.879 152.573 C 331.947 153.173, 334.431 153.711, 337.514 153.792 L 343.027 153.937 342.641 147.718 C 342.428 144.298, 341.986 140.825, 341.660 140 C 341.334 139.175, 340.841 134.450, 340.565 129.500 C 340.289 124.550, 339.405 117.350, 338.602 113.500 C 337.798 109.650, 336.881 104.777, 336.563 102.671 C 336.246 100.565, 335.555 98.037, 335.028 97.052 C 334.501 96.068, 334.311 95.023, 334.604 94.729 C 334.898 94.435, 334.721 93.363, 334.210 92.347 C 333.700 91.331, 332.550 88.208, 331.656 85.407 C 329.843 79.731, 324.203 67.515, 320.715 61.713 C 314.559 51.471, 305.238 43.576, 290.334 35.981 C 279.134 30.274, 250.586 25.796, 240 28.086 M 203.236 103.052 C 196.667 106.348, 188 114.208, 188 116.868 C 188 117.857, 187.691 118.976, 187.313 119.354 C 186.935 119.732, 186.517 120.819, 186.384 121.770 C 186.251 122.722, 185.639 125.300, 185.025 127.500 C 182.104 137.963, 181.037 144.792, 181.628 149.250 L 182.258 154 189.456 154 L 196.654 154 196.399 149.491 C 196.259 147.011, 196.584 143.524, 197.120 141.741 C 197.656 139.958, 198.272 136.775, 198.488 134.667 C 198.760 132.017, 199.748 130.089, 201.691 128.419 C 205.023 125.553, 206.253 125.446, 210.055 127.692 C 214.258 130.174, 217.183 137.756, 217.358 146.614 L 217.500 153.858 223.484 153.679 L 229.469 153.500 230.177 149.500 C 232.165 138.268, 230.138 116.105, 226.529 109.611 C 224.062 105.172, 221.371 103.444, 213.819 101.452 C 209.206 100.235, 208.695 100.312, 203.236 103.052 M 291.784 104.856 C 290.528 105.789, 288.328 107.144, 286.896 107.867 C 285.250 108.698, 283.169 111.547, 281.244 115.608 C 278.308 121.798, 278.207 122.465, 278.493 133.767 C 278.803 145.974, 279.327 151.103, 280.454 152.926 C 281.200 154.132, 288.954 154.370, 290.500 153.235 C 291.050 152.831, 291.608 149.250, 291.741 145.278 C 292.042 136.259, 294.396 130.406, 298.265 129.057 C 305.783 126.437, 311.408 134.420, 312.319 149 L 312.600 153.500 318.437 153.838 C 321.882 154.037, 324.545 153.736, 324.937 153.102 C 326.001 151.381, 325.236 133.835, 323.931 130 C 323.275 128.075, 322.045 124.925, 321.198 123 C 320.351 121.075, 319.553 118.963, 319.425 118.306 C 319.014 116.190, 311.585 107.877, 308.800 106.416 C 307.314 105.637, 304.837 105, 303.293 105 C 301.750 105, 299.042 104.586, 297.277 104.079 C 294.775 103.362, 293.564 103.533, 291.784 104.856 M 71.153 133.464 C 69.968 135.132, 68.116 141.126, 66.965 147.024 C 66.376 150.036, 65.928 162.100, 65.969 173.833 C 66.042 195.131, 66.790 200.516, 69.942 202.464 C 71.719 203.562, 75.897 200.284, 76.603 197.237 C 76.952 195.732, 77.946 193.375, 78.811 192 C 79.677 190.625, 80.734 186.125, 81.162 182 C 81.589 177.875, 82.368 170.675, 82.892 166 C 83.417 161.325, 83.976 153.762, 84.134 149.194 L 84.422 140.887 79.961 137.334 C 77.507 135.380, 75.580 133.477, 75.679 133.105 C 75.967 132.012, 71.959 132.331, 71.153 133.464 M 90.994 139.750 C 88.577 144.759, 88.534 199.011, 90.945 202.911 C 92.148 204.857, 98.564 204.492, 100.799 202.350 C 105.142 198.187, 106.468 191.402, 107.567 167.717 C 108.010 158.159, 107.814 155.333, 106.527 152.754 C 105.436 150.568, 105.136 148.278, 105.564 145.422 C 106.133 141.625, 105.930 141.086, 103.189 139.135 C 101.349 137.825, 98.671 137, 96.256 137 C 92.952 137, 92.108 137.441, 90.994 139.750 M 120.982 142.282 C 120.146 142.952, 118.108 145.170, 116.452 147.211 C 113.445 150.916, 113.442 150.933, 114.218 159.711 C 114.938 167.858, 115.087 177.147, 114.670 187.891 C 114.532 191.451, 114.926 192.562, 116.750 193.756 C 117.987 194.567, 119 195.821, 119 196.542 C 119 198.150, 123.731 202, 125.706 202 C 127.145 202, 130.156 199.551, 129.976 198.527 C 129.708 197, 131.455 188.151, 132.545 185.517 C 134.250 181.393, 133.700 161.917, 131.519 149.246 C 130.448 143.025, 124.750 139.258, 120.982 142.282 M 392 145.501 C 390.810 147.426, 388.899 149.658, 387.753 150.460 C 385.704 151.896, 385.698 152.005, 387.402 157.210 C 389.620 163.984, 390.980 206.301, 389.093 209.827 C 388.137 211.612, 388.199 212, 389.442 212 C 390.273 212, 391.691 213.125, 392.592 214.500 C 393.493 215.875, 394.530 217, 394.897 217 C 395.263 217, 396.141 215.042, 396.848 212.649 C 397.555 210.256, 398.790 207.031, 399.594 205.482 C 400.397 203.933, 401.524 199.479, 402.098 195.583 C 403.440 186.470, 403.520 159.843, 402.213 157.386 C 401.661 156.349, 401.306 153.559, 401.423 151.186 C 401.605 147.519, 401.203 146.507, 398.742 144.436 C 397.149 143.096, 395.468 142, 395.005 142 C 394.542 142, 393.190 143.575, 392 145.501 M 368.923 144.250 C 367.569 148.676, 366.868 161.031, 366.783 182 C 366.704 201.355, 366.911 204.198, 368.856 210.500 C 372.850 223.442, 375.079 225.003, 379.519 217.970 C 383.282 212.009, 384.210 205.482, 384.136 185.500 C 384.079 169.962, 383.743 166.208, 381.679 158.054 C 379.817 150.695, 378.815 148.397, 377.144 147.651 C 375.965 147.125, 375 146.088, 375 145.347 C 375 144.517, 373.849 144, 372 144 C 370.350 144, 368.966 144.113, 368.923 144.250 M 113.459 147.067 C 112.383 148.808, 113.608 149.177, 114.980 147.524 C 115.769 146.574, 115.845 146, 115.181 146 C 114.597 146, 113.821 146.480, 113.459 147.067 M 412.992 150.510 C 412.312 151.329, 410.910 152, 409.878 152 C 408.238 152, 407.985 152.855, 407.882 158.750 C 407.816 162.463, 407.865 165.950, 407.989 166.500 C 408.114 167.050, 408.288 168.625, 408.376 170 C 408.464 171.375, 408.929 173.121, 409.408 173.880 C 409.886 174.638, 410.441 179.138, 410.639 183.880 C 411.282 199.201, 414.212 210, 417.726 210 C 420.637 210, 424.086 207.039, 425.714 203.143 C 429.678 193.655, 430.361 176.250, 427.131 167 C 426.075 163.975, 424.717 159.661, 424.114 157.413 C 423.511 155.165, 422.226 152.638, 421.259 151.797 C 418.522 149.419, 414.427 148.781, 412.992 150.510 M 15.386 155.437 C 15.056 156.296, 14.069 157, 13.193 157 C 12.041 157, 11.902 157.302, 12.693 158.093 C 13.894 159.294, 18 157.694, 18 156.024 C 18 154.322, 15.987 153.870, 15.386 155.437 M 477.500 157 C 477.840 157.550, 478.568 158, 479.118 158 C 479.668 158, 479.840 157.550, 479.500 157 C 479.160 156.450, 478.432 156, 477.882 156 C 477.332 156, 477.160 156.450, 477.500 157 M 334.625 272.660 C 333.731 274.534, 333 276.727, 333 277.533 C 333 278.338, 331.200 282.995, 329 287.881 C 326.800 292.767, 325 297.074, 325 297.454 C 325 298.285, 322.375 301, 321.571 301 C 321.257 301, 320.983 300.438, 320.962 299.750 C 320.941 299.063, 319.124 297.255, 316.924 295.732 C 314.724 294.210, 312.636 292.185, 312.285 291.232 C 311.934 290.280, 310.540 288.027, 309.187 286.226 C 307.293 283.707, 306.239 283.102, 304.613 283.600 C 303.451 283.957, 302.392 284.338, 302.261 284.447 C 301.457 285.114, 305.560 293, 306.711 293 C 307.485 293, 307.844 293.443, 307.509 293.985 C 307.174 294.527, 308.273 296.312, 309.950 297.951 C 311.628 299.591, 313 301.327, 313 301.809 C 313 302.291, 314.575 303.533, 316.500 304.570 C 319.813 306.354, 321.065 308, 319.108 308 C 318.618 308, 317.907 309.233, 317.529 310.740 C 317.151 312.247, 316.540 313.709, 316.171 313.990 C 315.802 314.270, 313.989 317.683, 312.143 321.573 C 308.397 329.463, 308.306 332.500, 311.815 332.500 C 313.645 332.500, 314.560 331.399, 316.385 327 C 317.640 323.975, 321.932 314.750, 325.923 306.500 C 336.395 284.851, 338 281.291, 338 279.717 C 338 278.941, 338.705 276.894, 339.567 275.166 C 341.296 271.701, 340.977 270.489, 338.141 269.747 C 336.738 269.380, 335.830 270.132, 334.625 272.660 M 268.500 296.665 C 266.850 297.537, 264.730 298.923, 263.788 299.746 C 261.454 301.784, 257.829 308.914, 258.541 310.066 C 258.858 310.580, 258.669 311, 258.121 311 C 257.573 311, 257.108 311.788, 257.088 312.750 C 257.068 313.712, 256.782 317.361, 256.452 320.858 C 255.924 326.465, 256.108 327.486, 258.009 329.510 C 260.765 332.444, 267.430 334.150, 272 333.092 C 285.531 329.960, 297 319.075, 297 309.365 C 297 306.190, 296.248 304.938, 291.822 300.738 C 287.613 296.745, 286.115 295.903, 283.822 296.239 C 282.270 296.467, 281 296.282, 281 295.827 C 281 294.385, 271.625 295.014, 268.500 296.665 M 270.191 302.891 C 264.611 307.530, 260.388 321.413, 263.331 325.439 C 266.607 329.918, 279.695 326.105, 287.362 318.438 C 290.630 315.170, 291.063 314.188, 290.800 310.631 C 290.542 307.136, 289.936 306.189, 286.500 303.916 C 284.245 302.424, 280.500 301.055, 277.915 300.776 C 274.027 300.358, 272.852 300.680, 270.191 302.891 M 70.918 304.163 C 69.916 304.862, 69.842 305.293, 70.664 305.631 C 71.474 305.964, 71.559 307.050, 70.943 309.197 C 70.456 310.895, 70.266 312.621, 70.520 313.033 C 70.775 313.444, 71.253 316.418, 71.583 319.641 C 71.913 322.863, 72.305 326.625, 72.455 328 C 72.604 329.375, 73.199 332.525, 73.776 335 C 74.354 337.475, 74.862 344, 74.906 349.500 C 74.949 355, 75.215 367.150, 75.497 376.500 C 75.779 385.850, 76.004 397.675, 75.998 402.779 C 75.989 410.330, 76.282 412.171, 77.571 412.666 C 78.442 413, 79.908 412.521, 80.828 411.601 C 82.268 410.160, 82.500 407.412, 82.500 391.814 C 82.500 371.754, 81.949 373.335, 89.200 372.601 C 90.685 372.450, 92.515 371.818, 93.266 371.194 C 95.532 369.314, 106.459 368.933, 108.909 370.649 C 111.419 372.407, 114.461 378.109, 115.498 383 C 116.765 388.969, 118.794 392, 121.526 392 C 123.772 392, 123.999 391.609, 123.985 387.750 C 123.952 378.576, 115.422 363.280, 110.114 362.878 C 102.203 362.277, 98.326 362.355, 97.367 363.133 C 96.636 363.725, 96.039 363.543, 95.684 362.619 C 95.369 361.797, 96.794 359.389, 99.028 356.970 C 101.170 354.650, 103.649 350.563, 104.537 347.888 C 105.426 345.212, 106.569 342.767, 107.076 342.453 C 107.584 342.139, 108 341.221, 108 340.413 C 108 339.604, 109.575 335.624, 111.500 331.568 C 113.425 327.511, 115 323.231, 115 322.056 C 115 320.881, 115.900 318.156, 117 316 C 119.715 310.678, 119.627 308, 116.737 308 C 113.222 308, 108.006 316.451, 107.633 322.750 C 107.560 323.988, 107.162 325, 106.750 325 C 106.338 325, 106 326.035, 106 327.300 C 106 328.565, 105.628 330.028, 105.174 330.550 C 104.720 331.072, 103.751 333.401, 103.022 335.724 C 102.293 338.047, 100.938 340.762, 100.011 341.758 C 99.084 342.753, 98.031 344.739, 97.672 346.172 C 96.988 348.897, 82.312 364.646, 81.352 363.685 C 81.048 363.382, 81.172 362.541, 81.626 361.817 C 82.706 360.096, 83.145 353.914, 82.323 352 C 81.968 351.175, 81.581 349.375, 81.462 348 C 81.343 346.625, 80.879 341.450, 80.431 336.500 C 79.984 331.550, 79.624 325.363, 79.632 322.750 C 79.641 320.137, 79.327 318, 78.935 318 C 78.543 318, 78.266 317.438, 78.320 316.750 C 78.374 316.063, 78.051 313.383, 77.602 310.795 C 76.697 305.574, 73.477 302.379, 70.918 304.163 M 225.178 306.494 C 215.765 309.766, 208.027 313.696, 207.903 315.267 C 207.718 317.620, 208.666 331.500, 209.011 331.500 C 209.120 331.500, 209.407 335.550, 209.650 340.500 C 209.893 345.450, 210.217 351.300, 210.370 353.500 C 210.524 355.700, 210.728 358.738, 210.825 360.250 C 210.954 362.285, 211.525 363, 213.021 363 C 216.419 363, 217.199 359.444, 216.205 348.481 C 215.708 342.992, 215.451 338.216, 215.635 337.870 C 215.820 337.523, 219.689 336.932, 224.235 336.556 C 232.458 335.877, 232.556 335.896, 243.500 340.495 C 249.550 343.037, 255.004 345.342, 255.621 345.616 C 256.237 345.891, 257.036 345.349, 257.395 344.413 C 258.571 341.347, 256.224 339.727, 241.437 333.395 C 239.752 332.674, 236.479 331.780, 234.165 331.410 C 228.681 330.534, 228.277 329.624, 232.244 327.094 C 235.935 324.741, 239.616 320.995, 242.873 316.276 C 244.586 313.795, 244.865 312.616, 244.084 311.158 C 243.527 310.116, 243.282 309.051, 243.541 308.792 C 243.800 308.533, 243.144 307.536, 242.084 306.576 C 238.909 303.703, 233.286 303.676, 225.178 306.494 M 230.870 310.049 C 225.782 311.268, 216.710 315.402, 215.421 317.088 C 214.227 318.651, 214.729 328, 216.007 328 C 216.451 328, 219.746 326.684, 223.331 325.076 C 231.041 321.617, 238.274 314.934, 237.811 311.699 C 237.453 309.189, 235.951 308.832, 230.870 310.049 M 161.267 329.814 C 160.400 330.364, 160.180 332.664, 160.527 337.549 C 161.544 351.882, 162.133 362.587, 162.052 365.250 C 162.004 366.839, 162.503 368.006, 163.234 368.015 C 164.096 368.026, 164.022 368.334, 163 368.982 C 161.704 369.805, 161.772 370.203, 163.500 371.910 C 165.301 373.690, 165.948 373.770, 170 372.711 C 172.475 372.064, 174.725 371.298, 175 371.010 C 175.275 370.721, 179.550 369.197, 184.500 367.622 C 189.450 366.048, 194.063 364.308, 194.750 363.757 C 196.597 362.276, 196.268 360.220, 194.072 359.523 C 192.291 358.958, 175.736 363.779, 171.764 366.020 C 170.809 366.559, 169.834 367, 169.599 367 C 169.363 367, 168.858 363.512, 168.475 359.250 C 168.093 354.988, 167.618 350.150, 167.421 348.500 C 167.224 346.850, 166.770 342.350, 166.412 338.500 C 165.622 329.993, 164.354 327.853, 161.267 329.814 M 134.101 333.916 C 132.960 334.639, 132.847 336.886, 133.488 346.151 C 134.736 364.172, 135.953 379.354, 136.318 381.455 C 136.607 383.114, 139.897 385.182, 141.082 384.449 C 141.792 384.011, 141.961 380.993, 141.576 375.641 C 141.254 371.163, 140.764 360.883, 140.488 352.795 C 139.856 334.328, 138.726 330.988, 134.101 333.916 M 310.974 360.659 C 297.451 366.625, 288.042 375.023, 290.473 378.956 C 290.839 379.548, 291.360 381.253, 291.630 382.744 C 291.900 384.235, 292.280 385.613, 292.473 385.806 C 292.868 386.202, 295.984 386.695, 304 387.630 C 307.025 387.982, 310.101 388.747, 310.836 389.329 C 312.572 390.704, 311.587 395.834, 309.247 397.610 C 308.286 398.340, 307.950 398.972, 308.500 399.016 C 309.050 399.060, 307.475 399.769, 305 400.592 C 295.664 403.698, 293.212 405.096, 293.718 407.029 C 294.293 409.228, 296.958 410.442, 298.289 409.111 C 298.814 408.586, 299.864 408.394, 300.622 408.685 C 301.380 408.976, 302 408.764, 302 408.214 C 302 407.664, 302.698 406.946, 303.552 406.618 C 304.519 406.247, 304.851 406.433, 304.431 407.111 C 303.968 407.860, 304.420 407.846, 305.879 407.065 C 307.046 406.440, 308 405.495, 308 404.965 C 308 404.434, 308.608 404, 309.352 404 C 310.095 404, 312.230 402.541, 314.096 400.758 C 317.930 397.094, 318.655 393.170, 316.330 388.671 C 314.592 385.310, 307.670 381.916, 304.035 382.643 C 302.245 383.001, 300.614 382.401, 298.546 380.624 C 295.668 378.151, 295.644 378.051, 297.442 376.064 C 298.453 374.947, 301.580 372.689, 304.390 371.047 C 307.201 369.405, 311.222 366.556, 313.326 364.716 C 316.421 362.012, 316.894 361.157, 315.800 360.249 C 314.788 359.409, 313.575 359.512, 310.974 360.659 M 451 367.993 C 451 368.612, 450.550 368.840, 450 368.500 C 449.450 368.160, 449 368.359, 449 368.941 C 449 369.523, 448.357 370, 447.571 370 C 446.786 370, 445.529 370.563, 444.779 371.250 C 442.918 372.956, 439.961 374.806, 437.182 376.004 C 435.907 376.553, 433.386 378.129, 431.581 379.506 C 428.974 381.495, 427.620 381.874, 425.002 381.350 C 421.855 380.721, 421.735 380.807, 422.348 383.252 C 422.997 385.835, 423.972 400.245, 424.422 413.891 C 424.787 424.972, 426.489 425.359, 442.500 417.999 C 443.600 417.493, 446.750 416.455, 449.500 415.690 C 453.422 414.601, 454.573 413.809, 454.837 412.019 C 455.158 409.841, 454.933 409.759, 449.837 410.198 C 446.902 410.451, 441.363 412.050, 437.528 413.751 C 433.693 415.452, 430.265 416.664, 429.910 416.444 C 429.555 416.225, 429.207 413.575, 429.138 410.556 C 429.037 406.181, 429.300 405.178, 430.437 405.614 C 431.222 405.915, 436.102 404.100, 441.281 401.581 C 446.461 399.061, 451.108 397, 451.609 397 C 452.940 397, 455.168 393.081, 454.475 391.959 C 454.149 391.432, 453.235 391, 452.444 391 C 450.895 391, 432.810 400.083, 430.436 402.053 C 429.646 402.708, 428.992 403.077, 428.982 402.872 C 428.973 402.668, 428.693 399.501, 428.361 395.835 C 427.773 389.335, 427.836 389.093, 430.913 386.085 C 432.649 384.388, 434.658 383, 435.379 383 C 436.099 383, 437.996 381.856, 439.594 380.459 C 441.193 379.061, 445.087 376.523, 448.250 374.819 C 451.413 373.115, 454 371.334, 454 370.861 C 454 370.387, 454.712 370, 455.583 370 C 456.454 370, 456.982 369.438, 456.756 368.750 C 456.235 367.163, 451 366.474, 451 367.993 M 259.861 378.018 C 256.328 380.081, 252.058 390.998, 251.458 399.500 C 251.259 402.323, 250.094 414.253, 249.867 415.793 C 249.810 416.182, 249.816 417.867, 249.882 419.537 C 249.970 421.813, 250.501 422.612, 252 422.725 C 253.406 422.831, 254.034 422.226, 254.115 420.688 C 254.179 419.485, 254.335 418.050, 254.463 417.500 C 254.591 416.950, 254.764 415.046, 254.848 413.269 C 254.973 410.614, 255.490 409.929, 257.750 409.425 C 259.262 409.088, 261.850 408.222, 263.500 407.501 C 268.351 405.382, 274.217 403, 274.587 403 C 275.679 403, 276.918 407.434, 277.526 413.525 C 277.910 417.361, 278.344 420.633, 278.490 420.795 C 278.637 420.957, 280.049 421.182, 281.628 421.295 C 284.330 421.488, 284.530 421.234, 285 417 C 285.290 414.393, 284.977 411.448, 284.256 410 C 283.572 408.625, 283.010 406.669, 283.006 405.654 C 283.003 404.639, 282.139 402.599, 281.086 401.121 C 280.033 399.642, 278.861 396.776, 278.481 394.752 C 278.102 392.728, 277.168 390.554, 276.406 389.922 C 275.645 389.290, 275.239 388.422, 275.504 387.993 C 275.769 387.564, 273.829 384.915, 271.192 382.106 C 266.334 376.932, 263.482 375.903, 259.861 378.018 M 239.797 382.749 C 238.149 383.116, 237.020 385.346, 236.379 389.500 C 236.209 390.600, 235.612 393.300, 235.052 395.500 C 234.493 397.700, 233.758 401.975, 233.420 405 C 233.082 408.025, 232.537 410.936, 232.208 411.469 C 231.880 412.002, 231.505 414.927, 231.375 417.969 C 231.245 421.011, 231.023 426.312, 230.883 429.749 L 230.627 435.998 228.349 433.858 C 227.096 432.681, 223.544 427.103, 220.456 421.462 C 214.519 410.619, 211.526 406.658, 209.724 407.259 C 208.358 407.714, 204.353 420.542, 202.397 430.724 C 202.163 431.947, 201.486 434.197, 200.893 435.724 C 200.301 437.251, 199.606 439.625, 199.348 441 C 198.815 443.848, 197 446.189, 197 444.029 C 197 443.275, 196.373 441.947, 195.608 441.079 C 194.385 439.692, 190.384 427.038, 189.417 421.500 C 189.226 420.400, 188.565 417.475, 187.951 415 C 186.415 408.816, 185.974 406.902, 185.420 404 C 184.606 399.739, 184.128 399.014, 182.538 399.624 C 176.465 401.954, 188.093 446.613, 196.053 451.533 C 196.574 451.855, 197 453.022, 197 454.126 C 197 455.753, 197.427 455.999, 199.246 455.422 C 202.624 454.350, 203.764 452.193, 205.020 444.500 C 205.649 440.650, 206.547 436.150, 207.017 434.500 C 207.486 432.850, 208.651 428.575, 209.604 425 C 211.679 417.223, 212.528 415.983, 213.400 419.459 C 214.253 422.856, 221.636 435.155, 225.096 438.944 C 226.585 440.574, 227.959 442.318, 228.151 442.821 C 228.978 444.988, 232.916 445.084, 235.011 442.989 C 236.748 441.252, 237.098 439.774, 236.977 434.688 C 236.897 431.285, 237.103 425.575, 237.435 422 C 237.767 418.425, 238.187 412.981, 238.367 409.902 C 238.547 406.823, 238.982 403.838, 239.334 403.269 C 239.686 402.699, 240.238 400.493, 240.561 398.367 C 240.885 396.240, 241.790 392.572, 242.574 390.215 C 244.810 383.494, 244.170 381.774, 239.797 382.749 M 262.488 383.655 C 261.577 384.566, 260.367 386.478, 259.798 387.905 C 257.424 393.862, 255.284 405.506, 256.702 404.755 C 260.395 402.796, 267.237 400, 268.334 400 C 269.080 400, 270.431 399.182, 271.336 398.181 C 272.864 396.493, 272.861 396.046, 271.302 391.931 C 269.397 386.907, 266.285 382, 265.003 382 C 264.530 382, 263.398 382.745, 262.488 383.655 M 398.754 387.829 C 393.806 389.574, 386.083 395.113, 383.987 398.421 C 382.696 400.457, 382.084 409.788, 382.111 427 C 382.120 432.775, 382.082 439.529, 382.028 442.010 C 381.916 447.088, 383.880 450.644, 386.287 449.720 C 387.608 449.213, 387.823 447.371, 387.622 438.308 C 387.268 422.460, 386.726 423.420, 395.821 423.795 C 400.044 423.969, 405.075 424.601, 407 425.200 C 412.156 426.805, 420.793 430.856, 421.502 432.003 C 422.500 433.619, 425.731 433.144, 426.447 431.276 C 427.224 429.254, 425.372 427.623, 419.250 424.936 C 416.913 423.910, 415 422.654, 415 422.144 C 415 421.093, 411.380 420.023, 405.500 419.335 C 403.300 419.078, 401.128 418.503, 400.673 418.057 C 399.778 417.179, 403.462 412.615, 411.750 404.333 C 416.109 399.978, 417 398.485, 417 395.544 C 417 391.672, 414.606 388.561, 410.395 386.960 C 406.970 385.658, 404.357 385.853, 398.754 387.829 M 400.252 392.443 C 397.916 393.710, 394.218 396.266, 392.034 398.124 C 388.264 401.330, 388.041 401.841, 387.615 408.243 C 387.369 411.951, 387.559 415.228, 388.040 415.524 C 388.520 415.821, 388.659 416.725, 388.349 417.532 C 388.040 418.339, 388.172 419, 388.643 419 C 389.917 418.999, 406.077 404.103, 410.250 399.082 C 415.437 392.843, 408.279 388.090, 400.252 392.443 M 363 408.036 C 360.525 409.635, 356.137 411.478, 353.250 412.131 C 350.363 412.784, 348 413.697, 348 414.159 C 348 414.622, 347.663 414.947, 347.250 414.882 C 345.257 414.567, 343.944 415.101, 344.500 416 C 344.848 416.563, 344.046 417, 342.666 417 C 339.754 417, 339.009 418.576, 338.411 426 C 338.167 429.025, 337.732 433.975, 337.445 437 C 336.680 445.062, 336.130 454.454, 335.904 463.324 C 335.737 469.864, 336.016 471.449, 337.602 472.981 C 339.384 474.701, 339.793 474.717, 344.296 473.246 C 347.616 472.161, 348.927 471.252, 348.557 470.288 C 348.263 469.522, 348.434 469.150, 348.936 469.460 C 349.938 470.080, 356.987 466.571, 362.188 462.863 C 364.010 461.565, 365.901 460.502, 366.391 460.502 C 367.876 460.499, 369.359 457.378, 368.696 455.651 C 368.274 454.551, 367.179 454.149, 365.287 454.400 C 361.593 454.889, 359 456.006, 359 457.107 C 359 457.598, 358.325 458, 357.500 458 C 356.675 458, 356 458.702, 356 459.559 C 356 460.416, 355.553 460.842, 355.007 460.504 C 354.461 460.167, 351.134 461.265, 347.614 462.945 C 340.620 466.283, 339.223 466.652, 340.775 464.750 C 341.335 464.063, 341.852 460.350, 341.924 456.500 C 342.064 448.914, 342.509 444.112, 343.116 443.629 C 343.327 443.461, 348.788 440.765, 355.250 437.637 C 366.743 432.075, 368.442 430.767, 365.596 429.675 C 363.797 428.985, 360 429.963, 360 431.117 C 360 431.602, 359.175 432, 358.167 432 C 357.158 432, 356.002 432.332, 355.596 432.737 C 355.191 433.143, 354.328 433.508, 353.679 433.548 C 353.031 433.589, 350.764 434.408, 348.642 435.369 C 346.520 436.331, 344.601 436.934, 344.377 436.710 C 343.612 435.945, 343.263 428, 343.994 428 C 344.395 428, 344.514 426.910, 344.259 425.577 C 343.702 422.663, 346.549 420.673, 361.348 413.636 C 368.875 410.057, 371.055 408.586, 370.598 407.395 C 370.269 406.538, 370 405.648, 370 405.418 C 370 404.311, 367.070 405.406, 363 408.036 M 321.531 426.083 C 321.237 426.862, 320.885 433.465, 320.748 440.755 C 320.540 451.873, 320.265 453.920, 319.045 453.458 C 317.502 452.872, 311 455.919, 311 457.227 C 311 457.652, 310.570 458, 310.044 458 C 309.519 458, 306.511 459.806, 303.361 462.012 C 296.778 466.624, 295.979 466.220, 296.587 458.588 C 298.144 439.019, 297.891 437, 293.878 437 C 292.527 437, 291.964 437.772, 291.871 439.750 C 291.800 441.262, 291.629 443.625, 291.490 445 C 290.607 453.761, 289.791 465.772, 289.544 473.638 C 289.386 478.663, 289.051 483.163, 288.799 483.638 C 288.547 484.112, 288.270 488.425, 288.184 493.222 C 288.051 500.645, 288.292 502.086, 289.799 502.892 C 292.725 504.458, 295.821 498.832, 296.339 491.010 C 296.575 487.441, 296.392 483.530, 295.931 482.319 C 295.022 479.926, 297.336 474, 299.180 474 C 299.749 474, 299.964 473.348, 299.658 472.551 C 299.267 471.533, 299.582 471.286, 300.715 471.721 C 301.715 472.105, 302.078 471.936, 301.671 471.277 C 301.304 470.683, 302.031 469.958, 303.319 469.635 C 306.187 468.915, 311 464.867, 311 463.174 C 311 462.480, 311.563 461.985, 312.250 462.075 C 315.016 462.434, 316.934 461.923, 318.429 460.429 C 320.119 458.738, 320.199 459.530, 320.223 478.250 C 320.229 483.329, 320.574 485, 321.616 485 C 322.377 485, 323 485.550, 323 486.223 C 323 486.895, 323.765 486.353, 324.700 485.018 C 326.148 482.950, 326.423 479.624, 326.557 462.546 C 326.643 451.520, 326.359 441.262, 325.927 439.750 C 325.494 438.238, 325.446 437, 325.820 437 C 326.194 437, 326.500 434.520, 326.500 431.489 C 326.500 427.808, 326.125 426.122, 325.372 426.411 C 324.751 426.649, 323.754 426.354, 323.155 425.755 C 322.369 424.969, 321.916 425.061, 321.531 426.083" stroke="none" fill="black" fill-rule="evenodd"/>
</svg>